# xmcd CD database file
# Copyright (C) 1997 Ti Kan
#
# Track frame offsets:
#  182
#  22912
#  45745
#  67992
#  94145
#  117292
#  144987
#  169620
#
# Disc length: 2495 seconds
#
# Revision: 1
# Processed by: cddbd v1.4b41PL1 Copyright (c) Steve Scherf et al.
# Submitted via: CDWizzard Release:4.20
#
DISCID=5f09bd08
DTITLE=The O'Jays - Identify Yourself
DYEAR=1900
DGENRE=
TTITLE0=Sing A Happy Song
TTITLE1=Get On Out And Party
TTITLE2=Identify
TTITLE3=So Nice I Tried It Twice
TTITLE4=Hurry Up and Come Back
TTITLE5=Forever Mine
TTITLE6=I Want You Here With Me
TTITLE7=One In A Million (Girl)
EXTD=
EXTT0=
EXTT1=
EXTT2=
EXTT3=
EXTT4=
EXTT5=
EXTT6=
EXTT7=
PLAYORDER=
